<?xml version="1.0" encoding="UTF-8"?>
<svg height="128px" viewBox="0 0 128 128" width="128px" xmlns="http://www.w3.org/2000/svg" xmlns:xlink="http://www.w3.org/1999/xlink">
    <linearGradient id="a" gradientTransform="matrix(0.232143 0 0 0.328947 -8.566925 267.826965)" gradientUnits="userSpaceOnUse" x1="88.595886" x2="536.595886" y1="-449.394012" y2="-449.394012">
        <stop offset="0" stop-color="#77767b"/>
        <stop offset="0.303185" stop-color="#c0bfbc"/>
        <stop offset="0.551739" stop-color="#9a9996"/>
        <stop offset="0.780296" stop-color="#9a9996"/>
        <stop offset="1" stop-color="#c0bfbc"/>
        <stop offset="1" stop-color="#77767b"/>
    </linearGradient>
    <path d="m 64 14 c 28.71875 0 52 23.28125 52 52 v 2 c 0 28.71875 -23.28125 52 -52 52 s -52 -23.28125 -52 -52 v -2 c 0 -28.71875 23.28125 -52 52 -52 z m 0 0" fill="url(#a)"/>
    <path d="m 64 12 c 28.71875 0 52 23.28125 52 52 s -23.28125 52 -52 52 s -52 -23.28125 -52 -52 s 23.28125 -52 52 -52 z m 0 0" fill="#deddda"/>
    <path d="m 64.917969 34.023438 c 4.367187 0.226562 8.605469 2.03125 11.8125 5.242187 c 5.136719 5.136719 6.683593 12.90625 3.90625 19.617187 c -1.984375 4.785157 -5.914063 8.355469 -10.632813 10.035157 v 7.078125 h -12 v -12 c 0 -3.316406 2.683594 -6.003906 6 -6.003906 c 2.441406 0 4.609375 -1.441407 5.542969 -3.703126 c 0.9375 -2.257812 0.425781 -4.8125 -1.300781 -6.539062 c -1.730469 -1.730469 -4.28125 -2.238281 -6.539063 -1.300781 c -2.257812 0.933593 -3.703125 3.097656 -3.703125 5.542969 h -12.003906 c 0 -7.265626 4.398438 -13.851563 11.109375 -16.632813 c 2.519531 -1.042969 5.1875 -1.46875 7.808594 -1.335937 z m -0.914063 47.972656 c 3.3125 0 6 2.6875 6 6.003906 c 0 3.3125 -2.6875 6 -6 6 c -3.316406 0 -6 -2.6875 -6 -6 c 0 -3.316406 2.683594 -6.003906 6 -6.003906 z m 0 0" fill="#9a9996"/>
    <path d="m 109.988281 64 c 0 25.398438 -20.589843 45.988281 -45.988281 45.988281 s -45.988281 -20.589843 -45.988281 -45.988281 s 20.589843 -45.988281 45.988281 -45.988281 s 45.988281 20.589843 45.988281 45.988281 z m 0 0" fill="none" stroke="#9a9996" stroke-linecap="round" stroke-width="4"/>
</svg>
